<svg width="350" height="350" viewBox="0 0 350 350" fill="none" xmlns="http://www.w3.org/2000/svg">
<g clip-path="url(#clip0_1_10)">
<path d="M331 0H21C9.9543 0 1 8.9543 1 20V330C1 341.046 9.9543 350 21 350H331C342.046 350 351 341.046 351 330V20C351 8.9543 342.046 0 331 0Z" fill="#333333"/>
<path d="M214.5 251.5L106.5 99H142L249 251.5H214.5Z" fill="#333333"/>
<path d="M192.216 161.873L253.647 92H239.092L185.727 152.658L143.136 92H94L158.421 183.733L94 257H108.555L164.876 192.929L209.864 257H259L192.216 161.873ZM172.274 184.538L165.737 175.398L113.804 102.737H136.164L178.088 161.399L184.597 170.539L239.085 246.786H216.725L172.274 184.538Z" fill="white"/>
</g>
<defs>
<clipPath id="clip0_1_10">
<rect width="350" height="350" fill="white"/>
</clipPath>
</defs>
</svg>
